<svg width="52.000000" height="16.000000" viewBox="0 0 52 16" fill="none" xmlns="http://www.w3.org/2000/svg" xmlns:xlink="http://www.w3.org/1999/xlink">
	<desc>
			Created with Pixso.
	</desc>
	<defs/>
	<path id="Vector 1" d="M-0.75 6.99L38.25 6.99L38.25 7.99L37.94 7.04Q38.67 6.8 39.08 6.09Q39.29 5.75 39.39 5.32Q39.5 4.89 39.5 4.42Q39.5 3.95 39.39 3.49Q39.28 3.03 39.06 2.63Q38.61 1.78 37.81 1.38Q37.48 1.22 37.06 1.12Q36.6 1.02 36.1 1Q35.58 0.99 35.07 1.08Q34.55 1.17 34.1 1.36Q33.14 1.76 32.67 2.53Q32.11 3.46 32.25 4.89L30.26 5.09Q30.05 2.99 30.96 1.49Q31.38 0.81 32.02 0.29Q32.59 -0.18 33.32 -0.49Q33.99 -0.77 34.74 -0.9Q35.43 -1.01 36.15 -0.99Q36.85 -0.97 37.5 -0.83Q38.16 -0.68 38.7 -0.41Q39.4 -0.06 39.95 0.49Q40.46 1.01 40.82 1.68Q41.16 2.31 41.34 3.02Q41.5 3.71 41.5 4.42Q41.5 5.14 41.33 5.82Q41.15 6.52 40.8 7.11Q40.43 7.75 39.88 8.21Q39.3 8.69 38.57 8.94L38.42 8.99L-0.75 8.99L-0.75 6.99Z" fill="#EF272C" fill-opacity="1.000000" fill-rule="evenodd"/>
	<line id="Line 5" x1="-0.740234" y1="14.992188" x2="51.009766" y2="14.992188" stroke="#EF272C" stroke-opacity="1.000000" stroke-width="2.000000"/>
</svg>
