<svg width="52.000000" height="16.000000" viewBox="0 0 52 16" fill="none" xmlns="http://www.w3.org/2000/svg" xmlns:xlink="http://www.w3.org/1999/xlink">
	<desc>
			Created with Pixso.
	</desc>
	<defs/>
	<path id="Vector 2" d="M51.25 6.99L12.25 6.99L12.25 7.99L12.57 7.04Q11.84 6.8 11.43 6.09Q11.22 5.75 11.11 5.32Q11 4.89 11 4.42Q11 3.95 11.12 3.49Q11.23 3.03 11.45 2.63Q11.9 1.78 12.7 1.38Q13.02 1.22 13.45 1.12Q13.91 1.02 14.41 1Q14.93 0.99 15.44 1.08Q15.96 1.17 16.41 1.36Q17.37 1.76 17.84 2.53Q18.4 3.46 18.26 4.89L20.25 5.09Q20.46 2.99 19.55 1.49Q19.13 0.81 18.49 0.29Q17.92 -0.18 17.19 -0.49Q16.52 -0.77 15.77 -0.9Q15.08 -1.01 14.36 -0.99Q13.66 -0.98 13.01 -0.83Q12.35 -0.68 11.81 -0.41Q11.11 -0.06 10.56 0.49Q10.05 1.01 9.69 1.68Q9.35 2.3 9.17 3.02Q9 3.71 9 4.42Q9 5.14 9.18 5.82Q9.36 6.52 9.71 7.11Q10.08 7.75 10.63 8.21Q11.21 8.69 11.94 8.94L12.09 8.99L51.25 8.99L51.25 6.99Z" fill="#EF272C" fill-opacity="1.000000" fill-rule="evenodd"/>
	<line id="Line 4" x1="0.000000" y1="14.992310" x2="51.259766" y2="14.992310" stroke="#EF272C" stroke-opacity="1.000000" stroke-width="2.000000"/>
</svg>
